<svg width="68" height="87" viewBox="0 0 68 87" fill="none" xmlns="http://www.w3.org/2000/svg">
<g clip-path="url(#clip0_131_140)">
<path d="M2.82397 68.606L6.58868 78.98L10.2357 68.7239C10.471 67.8987 11.1769 67.8987 11.8828 68.1345C12.471 68.3703 12.9416 68.8418 12.5887 69.667L8.35338 80.6304C8.00044 81.6914 7.29456 81.9272 6.47103 81.9272C5.6475 81.9272 5.05927 81.4556 4.70633 80.5125L0.471031 69.5491C0.235737 68.8418 0.588678 68.2524 1.29456 68.0166C1.76515 67.7808 2.58868 67.8987 2.82397 68.606Z" fill="#779687"/>
<path d="M26.8242 73.9112C26.8242 75.3258 26.3536 75.7974 24.9419 75.7974H17.1772V75.9153C17.1772 78.3909 18.4713 79.8055 21.0595 79.8055C22.5889 79.8055 23.6477 79.5697 24.8242 78.9803C25.4125 78.7445 26.0007 78.8624 26.236 79.4518C26.4713 80.0413 26.3536 80.6307 25.883 80.8665C24.5889 81.5738 23.0595 81.9274 21.0595 81.9274C17.1772 81.9274 14.8242 79.6876 14.8242 75.3258V74.5006C14.8242 70.1388 17.1772 67.899 21.0595 67.899C24.4713 67.6632 26.8242 70.0209 26.8242 73.9112ZM17.1772 73.5575V73.6754H24.3536V73.4396C24.3536 71.1998 23.1772 69.7852 20.8242 69.7852C18.4713 69.9031 17.1772 71.3177 17.1772 73.5575Z" fill="#779687"/>
<path d="M38.0001 68.0164C38.4706 68.2522 38.7059 68.7237 38.5883 69.3131C38.4706 70.0205 37.8824 70.492 37.2942 70.3741C36.8236 70.2562 36.4706 70.1383 36.0001 70.1383C34.1177 70.1383 32.8236 71.7888 32.8236 73.9107V80.7481C32.8236 81.4554 32.2353 81.8091 31.5295 81.8091C30.8236 81.8091 30.2354 81.4554 30.2354 80.7481V68.9595C30.2354 68.2522 30.8236 67.8985 31.4118 67.8985C32.1177 67.8985 32.7059 68.2522 32.7059 68.9595V70.3741C33.2942 68.9595 34.7059 67.7806 36.4706 67.7806C37.1765 67.6627 37.6471 67.7806 38.0001 68.0164Z" fill="#779687"/>
<path d="M52.4707 63.5369V80.7482C52.4707 81.4556 51.8825 81.8092 51.2942 81.8092C50.706 81.8092 50.1178 81.4556 50.1178 80.7482V79.8051C49.4119 81.2198 47.7648 81.9271 45.8825 81.9271C42.3531 81.9271 40.4707 79.6873 40.4707 75.3255V74.5003C40.4707 70.1385 42.706 67.8986 46.1178 67.8986C48.2354 67.8986 49.5295 68.7238 50.0001 69.6669V63.7726C50.0001 63.0653 50.5883 62.7117 51.2942 62.7117C51.8825 62.4759 52.4707 62.7117 52.4707 63.5369ZM42.9413 74.5003V75.2076C42.9413 78.2726 44.0001 79.6873 46.3531 79.6873C48.4707 79.6873 50.1178 78.1547 50.1178 75.9149V72.9678C50.1178 71.4352 48.8236 70.0206 46.4707 70.0206C44.1178 69.9027 42.9413 71.4352 42.9413 74.5003Z" fill="#779687"/>
<path d="M67.6473 69.4317L61.059 86.2894C60.8237 86.9968 60.1179 87.1146 59.5296 86.8789C58.8237 86.5252 58.4708 86.0537 58.8237 85.4642L60.3532 81.6919L55.5296 69.5496C55.2943 68.8423 55.6473 68.2529 56.3532 68.0171C56.9414 67.7813 57.7649 67.7813 58.0002 68.6065L61.6473 78.6268L65.2943 68.6065C65.5296 67.8992 66.3532 67.7813 66.9414 67.8992C67.5296 68.135 67.8826 68.8423 67.6473 69.4317Z" fill="#779687"/>
<path d="M67.8827 2.23984L67.6474 0H65.4121C43.2945 0 37.2945 19.3333 37.1768 31.3577V39.4919C36.118 39.6098 35.0592 39.6098 34.0004 39.6098C32.9415 39.6098 31.8827 39.6098 30.8239 39.4919V31.3577C30.8239 19.3333 24.8239 0 2.70624 0H0.470949L0.235655 2.23984C0.118008 3.18293 -1.99964 21.4553 9.88271 34.6585C14.118 39.374 19.5298 42.3211 26.0004 43.7358V53.0488C26.0004 57.5285 29.6474 61.065 34.118 61.1829C38.5886 61.1829 42.2357 57.5285 42.2357 53.0488V43.7358C48.7062 42.439 54.118 39.374 58.3533 34.6585C70.118 21.4553 67.8827 3.18293 67.8827 2.23984ZM26.0004 38.6667C20.9415 37.4878 16.8239 35.0122 13.5298 31.4756C5.17683 22.1626 4.82389 10.7276 4.94154 5.06911C25.4121 6.95529 25.8827 30.1789 26.0004 31.3577V38.6667ZM37.1768 52.9309C37.1768 54.6992 35.7651 56.1138 34.0004 56.1138C32.2357 56.1138 30.8239 54.6992 30.8239 52.9309V44.3252C31.7651 44.4431 32.8239 44.4431 33.7651 44.4431H33.8827H34.0004C35.0592 44.4431 36.0004 44.4431 36.9415 44.3252V52.9309H37.1768ZM54.471 31.3577C51.1768 35.0122 47.0592 37.3699 42.0004 38.5488V31.2398C42.0004 30.061 42.471 6.8374 62.9415 4.95122C63.2945 10.7276 62.8239 22.1626 54.471 31.3577Z" fill="#779687"/>
</g>
<defs>
<clipPath id="clip0_131_140">
<rect width="68" height="87" fill="white"/>
</clipPath>
</defs>
</svg>
