<svg width="21" height="21" viewBox="0 0 21 21" fill="none" xmlns="http://www.w3.org/2000/svg">
<path d="M10.4997 20.9154C9.07606 20.9154 7.73058 20.6419 6.46322 20.0951C5.19585 19.5482 4.08908 18.8016 3.1429 17.8555C2.19672 16.9093 1.4502 15.8025 0.90332 14.5352C0.356445 13.2678 0.0830078 11.9223 0.0830078 10.4987C0.0830078 9.05773 0.356445 7.7079 0.90332 6.44922C1.4502 5.19054 2.19672 4.08811 3.1429 3.14193C4.08908 2.19575 5.19585 1.44922 6.46322 0.902344C7.73058 0.355469 9.07606 0.0820312 10.4997 0.0820312C11.9406 0.0820312 13.2905 0.355469 14.5492 0.902344C15.8078 1.44922 16.9103 2.19575 17.8564 3.14193C18.8026 4.08811 19.5492 5.19054 20.096 6.44922C20.6429 7.7079 20.9163 9.05773 20.9163 10.4987C20.9163 11.9223 20.6429 13.2678 20.096 14.5352C19.5492 15.8025 18.8026 16.9093 17.8564 17.8555C16.9103 18.8016 15.8078 19.5482 14.5492 20.0951C13.2905 20.6419 11.9406 20.9154 10.4997 20.9154ZM10.4997 18.7799C10.9511 18.1549 11.3417 17.5039 11.6715 16.8268C12.0014 16.1497 12.2705 15.4293 12.4788 14.6654H8.52051C8.72884 15.4293 8.99794 16.1497 9.3278 16.8268C9.65766 17.5039 10.0483 18.1549 10.4997 18.7799ZM7.79134 18.3633C7.47884 17.7904 7.2054 17.1957 6.97103 16.5794C6.73665 15.9631 6.54134 15.3251 6.38509 14.6654H3.31217C3.81565 15.5334 4.44499 16.2886 5.2002 16.931C5.9554 17.5734 6.81912 18.0508 7.79134 18.3633ZM13.208 18.3633C14.1802 18.0508 15.0439 17.5734 15.7992 16.931C16.5544 16.2886 17.1837 15.5334 17.6872 14.6654H14.6143C14.458 15.3251 14.2627 15.9631 14.0283 16.5794C13.7939 17.1957 13.5205 17.7904 13.208 18.3633ZM2.42676 12.582H5.96842C5.91634 12.2348 5.87728 11.8919 5.85124 11.5534C5.82519 11.2148 5.81217 10.8633 5.81217 10.4987C5.81217 10.1341 5.82519 9.78255 5.85124 9.44401C5.87728 9.10547 5.91634 8.76259 5.96842 8.41536H2.42676C2.33995 8.76259 2.27485 9.10547 2.23145 9.44401C2.18804 9.78255 2.16634 10.1341 2.16634 10.4987C2.16634 10.8633 2.18804 11.2148 2.23145 11.5534C2.27485 11.8919 2.33995 12.2348 2.42676 12.582ZM8.05176 12.582H12.9476C12.9997 12.2348 13.0387 11.8919 13.0648 11.5534C13.0908 11.2148 13.1038 10.8633 13.1038 10.4987C13.1038 10.1341 13.0908 9.78255 13.0648 9.44401C13.0387 9.10547 12.9997 8.76259 12.9476 8.41536H8.05176C7.99967 8.76259 7.96061 9.10547 7.93457 9.44401C7.90853 9.78255 7.89551 10.1341 7.89551 10.4987C7.89551 10.8633 7.90853 11.2148 7.93457 11.5534C7.96061 11.8919 7.99967 12.2348 8.05176 12.582ZM15.0309 12.582H18.5726C18.6594 12.2348 18.7245 11.8919 18.7679 11.5534C18.8113 11.2148 18.833 10.8633 18.833 10.4987C18.833 10.1341 18.8113 9.78255 18.7679 9.44401C18.7245 9.10547 18.6594 8.76259 18.5726 8.41536H15.0309C15.083 8.76259 15.1221 9.10547 15.1481 9.44401C15.1742 9.78255 15.1872 10.1341 15.1872 10.4987C15.1872 10.8633 15.1742 11.2148 15.1481 11.5534C15.1221 11.8919 15.083 12.2348 15.0309 12.582ZM14.6143 6.33203H17.6872C17.1837 5.46398 16.5544 4.70877 15.7992 4.06641C15.0439 3.42404 14.1802 2.94661 13.208 2.63411C13.5205 3.20703 13.7939 3.80165 14.0283 4.41797C14.2627 5.03429 14.458 5.67231 14.6143 6.33203ZM8.52051 6.33203H12.4788C12.2705 5.56814 12.0014 4.84766 11.6715 4.17057C11.3417 3.49349 10.9511 2.84245 10.4997 2.21745C10.0483 2.84245 9.65766 3.49349 9.3278 4.17057C8.99794 4.84766 8.72884 5.56814 8.52051 6.33203ZM3.31217 6.33203H6.38509C6.54134 5.67231 6.73665 5.03429 6.97103 4.41797C7.2054 3.80165 7.47884 3.20703 7.79134 2.63411C6.81912 2.94661 5.9554 3.42404 5.2002 4.06641C4.44499 4.70877 3.81565 5.46398 3.31217 6.33203Z" fill="#5D786B"/>
</svg>
