<svg width="21" height="22" viewBox="0 0 21 22" fill="none" xmlns="http://www.w3.org/2000/svg">
<path d="M10.5007 21.0754C9.07704 21.0754 7.73155 20.7988 6.46419 20.2455C5.19683 19.6923 4.09006 18.9371 3.14388 17.9799C2.1977 17.0228 1.45117 15.9031 0.904297 14.621C0.357422 13.339 0.0839844 11.9778 0.0839844 10.5377C0.0839844 9.07998 0.357422 7.71447 0.904297 6.44116C1.45117 5.16786 2.1977 4.05262 3.14388 3.09545C4.09006 2.13827 5.19683 1.38307 6.46419 0.829843C7.73155 0.276614 9.07704 0 10.5007 0C11.9416 0 13.2915 0.276614 14.5501 0.829843C15.8088 1.38307 16.9112 2.13827 17.8574 3.09545C18.8036 4.05262 19.5501 5.16786 20.097 6.44116C20.6439 7.71447 20.9173 9.07998 20.9173 10.5377C20.9173 11.9778 20.6439 13.339 20.097 14.621C19.5501 15.9031 18.8036 17.0228 17.8574 17.9799C16.9112 18.9371 15.8088 19.6923 14.5501 20.2455C13.2915 20.7988 11.9416 21.0754 10.5007 21.0754ZM10.5007 18.9152C10.952 18.2829 11.3427 17.6243 11.6725 16.9393C12.0024 16.2544 12.2715 15.5255 12.4798 14.7528H8.52149C8.72982 15.5255 8.99892 16.2544 9.32878 16.9393C9.65864 17.6243 10.0493 18.2829 10.5007 18.9152ZM7.79232 18.4936C7.47982 17.9141 7.20638 17.3125 6.97201 16.6891C6.73763 16.0656 6.54232 15.4202 6.38607 14.7528H3.31315C3.81662 15.6309 4.44596 16.3949 5.20117 17.0447C5.95638 17.6945 6.8201 18.1775 7.79232 18.4936ZM13.209 18.4936C14.1812 18.1775 15.0449 17.6945 15.8001 17.0447C16.5553 16.3949 17.1847 15.6309 17.6882 14.7528H14.6152C14.459 15.4202 14.2637 16.0656 14.0293 16.6891C13.7949 17.3125 13.5215 17.9141 13.209 18.4936ZM2.42773 12.6452H5.9694C5.91732 12.294 5.87826 11.9471 5.85221 11.6046C5.82617 11.2622 5.81315 10.9065 5.81315 10.5377C5.81315 10.1689 5.82617 9.81322 5.85221 9.47075C5.87826 9.12827 5.91732 8.78141 5.9694 8.43015H2.42773C2.34093 8.78141 2.27582 9.12827 2.23242 9.47075C2.18902 9.81322 2.16732 10.1689 2.16732 10.5377C2.16732 10.9065 2.18902 11.2622 2.23242 11.6046C2.27582 11.9471 2.34093 12.294 2.42773 12.6452ZM8.05273 12.6452H12.9486C13.0007 12.294 13.0397 11.9471 13.0658 11.6046C13.0918 11.2622 13.1048 10.9065 13.1048 10.5377C13.1048 10.1689 13.0918 9.81322 13.0658 9.47075C13.0397 9.12827 13.0007 8.78141 12.9486 8.43015H8.05273C8.00065 8.78141 7.96159 9.12827 7.93555 9.47075C7.90951 9.81322 7.89648 10.1689 7.89648 10.5377C7.89648 10.9065 7.90951 11.2622 7.93555 11.6046C7.96159 11.9471 8.00065 12.294 8.05273 12.6452ZM15.0319 12.6452H18.5736C18.6604 12.294 18.7255 11.9471 18.7689 11.6046C18.8123 11.2622 18.834 10.9065 18.834 10.5377C18.834 10.1689 18.8123 9.81322 18.7689 9.47075C18.7255 9.12827 18.6604 8.78141 18.5736 8.43015H15.0319C15.084 8.78141 15.123 9.12827 15.1491 9.47075C15.1751 9.81322 15.1882 10.1689 15.1882 10.5377C15.1882 10.9065 15.1751 11.2622 15.1491 11.6046C15.123 11.9471 15.084 12.294 15.0319 12.6452ZM14.6152 6.32261H17.6882C17.1847 5.44447 16.5553 4.68049 15.8001 4.03067C15.0449 3.38084 14.1812 2.89786 13.209 2.58173C13.5215 3.16131 13.7949 3.76283 14.0293 4.38631C14.2637 5.00979 14.459 5.65523 14.6152 6.32261ZM8.52149 6.32261H12.4798C12.2715 5.54985 12.0024 4.82099 11.6725 4.13604C11.3427 3.45109 10.952 2.79249 10.5007 2.16023C10.0493 2.79249 9.65864 3.45109 9.32878 4.13604C8.99892 4.82099 8.72982 5.54985 8.52149 6.32261ZM3.31315 6.32261H6.38607C6.54232 5.65523 6.73763 5.00979 6.97201 4.38631C7.20638 3.76283 7.47982 3.16131 7.79232 2.58173C6.8201 2.89786 5.95638 3.38084 5.20117 4.03067C4.44596 4.68049 3.81662 5.44447 3.31315 6.32261Z" fill="white"/>
</svg>
