<svg width="97" height="26" viewBox="0 0 97 26" fill="none" xmlns="http://www.w3.org/2000/svg">
<path d="M29.522 6.23724L33.4364 17.0508L37.2285 6.36012C37.4732 5.49996 38.2071 5.49996 38.9411 5.74572C39.5527 5.99148 40.042 6.483 39.6751 7.34317L35.2713 18.7711C34.9043 19.877 34.1704 20.1228 33.3141 20.1228C32.4578 20.1228 31.8462 19.6313 31.4792 18.6482L27.0755 7.22029C26.8308 6.483 27.1978 5.8686 27.9318 5.62284C28.4211 5.37708 29.2773 5.49996 29.522 6.23724Z" fill="#374F43"/>
<path d="M54.4763 11.7604C54.4763 13.2349 53.987 13.7264 52.5191 13.7264H44.4455V13.8493C44.4455 16.4298 45.7911 17.9044 48.4823 17.9044C50.0725 17.9044 51.1735 17.6586 52.3967 17.0442C53.0084 16.7985 53.62 16.9214 53.8646 17.5358C54.1093 18.1502 53.987 18.7646 53.4977 19.0103C52.1521 19.7476 50.5618 20.1163 48.4823 20.1163C44.4455 20.1163 41.999 17.7815 41.999 13.2349V12.3748C41.999 7.82816 44.4455 5.49342 48.4823 5.49342C52.0298 5.24766 54.4763 7.70528 54.4763 11.7604ZM44.4455 11.3917V11.5146H51.9074V11.2688C51.9074 8.93409 50.6842 7.45952 48.2376 7.45952C45.7911 7.5824 44.4455 9.05697 44.4455 11.3917Z" fill="#374F43"/>
<path d="M66.0979 5.61819C66.5872 5.86395 66.8319 6.35547 66.7096 6.96988C66.5872 7.70716 65.9756 8.19869 65.364 8.07581C64.8747 7.95292 64.5077 7.83004 64.0184 7.83004C62.0612 7.83004 60.7156 9.55038 60.7156 11.7622V18.8893C60.7156 19.6266 60.104 19.9953 59.37 19.9953C58.636 19.9953 58.0244 19.6266 58.0244 18.8893V6.60123C58.0244 5.86395 58.636 5.4953 59.2477 5.4953C59.9816 5.4953 60.5933 5.86395 60.5933 6.60123V8.07581C61.2049 6.60124 62.6728 5.37243 64.5077 5.37243C65.2416 5.24954 65.7309 5.37243 66.0979 5.61819Z" fill="#374F43"/>
<path d="M81.1433 0.950492V18.8911C81.1433 19.6284 80.5316 19.997 79.92 19.997C79.3084 19.997 78.6967 19.6284 78.6967 18.8911V17.908C77.9628 19.3826 76.2502 20.1199 74.293 20.1199C70.6232 20.1199 68.666 17.7852 68.666 13.2386V12.3784C68.666 7.83182 70.9902 5.49708 74.5377 5.49708C76.7395 5.49708 78.0851 6.35725 78.5744 7.34029V1.19625C78.5744 0.458965 79.186 0.0903253 79.92 0.0903253C80.5316 -0.155437 81.1433 0.0903262 81.1433 0.950492ZM71.2349 12.3784V13.1157C71.2349 16.3106 72.3358 17.7852 74.7823 17.7852C76.9842 17.7852 78.6967 16.1877 78.6967 13.853V10.781C78.6967 9.18351 77.3512 7.70894 74.9046 7.70894C72.4581 7.58606 71.2349 9.18351 71.2349 12.3784Z" fill="#374F43"/>
<path d="M96.9231 7.09209L90.0728 24.6641C89.8282 25.4013 89.0942 25.5242 88.4826 25.2785C87.7487 24.9098 87.3817 24.4183 87.7487 23.8039L89.3389 19.8717L84.3235 7.21497C84.0789 6.47769 84.4459 5.86328 85.1798 5.61752C85.7914 5.37176 86.6477 5.37176 86.8924 6.23193L90.6845 16.6768L94.4766 6.23193C94.7212 5.49464 95.5775 5.37176 96.1891 5.49464C96.8008 5.7404 97.1678 6.47769 96.9231 7.09209Z" fill="#374F43"/>
<path d="M20.9477 3.69557L20.8751 3H20.1851C13.3581 3 11.5061 9.00385 11.4698 12.738V15.264C11.143 15.3006 10.8162 15.3006 10.4893 15.3006C10.1625 15.3006 9.8357 15.3006 9.50887 15.264V12.738C9.50887 9.00385 7.65687 3 0.829901 3H0.13994L0.0673131 3.69557C0.0309994 3.98844 -0.622647 9.66281 3.04504 13.763C4.35233 15.2274 6.02276 16.1426 8.02001 16.5819V19.474C8.02001 20.8651 9.14573 21.9634 10.5257 22C11.9056 22 13.0313 20.8651 13.0313 19.474V16.5819C15.0286 16.1792 16.699 15.2274 18.0063 13.763C21.6376 9.66281 20.9477 3.98844 20.9477 3.69557ZM8.02001 15.0077C6.45852 14.6416 5.18754 13.8728 4.17076 12.7746C1.59249 9.88247 1.48355 6.33141 1.51986 4.57418C7.83844 5.15992 7.9837 12.3719 8.02001 12.738V15.0077ZM11.4698 19.4374C11.4698 19.9865 11.034 20.4258 10.4893 20.4258C9.94464 20.4258 9.50887 19.9865 9.50887 19.4374V16.7649C9.79938 16.8015 10.1262 16.8015 10.4167 16.8015H10.453H10.4893C10.8162 16.8015 11.1067 16.8015 11.3972 16.7649V19.4374H11.4698ZM16.8079 12.738C15.7911 13.8728 14.5202 14.605 12.9587 14.9711V12.7013C12.9587 12.3353 13.1039 5.12331 19.4225 4.53757C19.5315 6.33141 19.3862 9.88247 16.8079 12.738Z" fill="#374F43"/>
</svg>
