<svg width="97" height="27" viewBox="0 0 97 27" fill="none" xmlns="http://www.w3.org/2000/svg">
<path d="M29.522 7.19884L33.4364 18.138L37.2285 7.32315C37.4732 6.45299 38.2071 6.45299 38.9411 6.70161C39.5527 6.95022 40.042 7.44746 39.6751 8.31762L35.2713 19.8783C34.9043 20.9971 34.1704 21.2457 33.3141 21.2457C32.4578 21.2457 31.8462 20.7485 31.4792 19.754L27.0755 8.19331C26.8308 7.44746 27.1978 6.82592 27.9318 6.5773C28.4211 6.32868 29.2773 6.45299 29.522 7.19884Z" fill="white"/>
<path d="M54.4772 12.7865C54.4772 14.2782 53.9879 14.7754 52.52 14.7754H44.4465V14.8997C44.4465 17.5102 45.7921 19.0019 48.4833 19.0019C50.0735 19.0019 51.1744 18.7533 52.3977 18.1318C53.0093 17.8831 53.621 18.0074 53.8656 18.629C54.1103 19.2505 53.9879 19.8721 53.4986 20.1207C52.1531 20.8665 50.5628 21.2395 48.4833 21.2395C44.4465 21.2395 42 18.8776 42 14.2782V13.408C42 8.80861 44.4465 6.44675 48.4833 6.44675C52.0307 6.19813 54.4772 8.6843 54.4772 12.7865ZM44.4465 12.4136V12.5379H51.9084V12.2892C51.9084 9.92739 50.6851 8.43568 48.2386 8.43568C45.7921 8.55999 44.4465 10.0517 44.4465 12.4136Z" fill="white"/>
<path d="M66.0969 6.57863C66.5863 6.82725 66.8309 7.32448 66.7086 7.94603C66.5863 8.69188 65.9746 9.18911 65.363 9.06481C64.8737 8.9405 64.5067 8.81619 64.0174 8.81619C62.0602 8.81619 60.7146 10.5565 60.7146 12.7941V20.004C60.7146 20.7498 60.103 21.1227 59.369 21.1227C58.6351 21.1227 58.0234 20.7498 58.0234 20.004V7.5731C58.0234 6.82725 58.6351 6.45432 59.2467 6.45432C59.9807 6.45432 60.5923 6.82725 60.5923 7.5731V9.06481C61.2039 7.5731 62.6718 6.33002 64.5067 6.33002C65.2407 6.20571 65.73 6.33002 66.0969 6.57863Z" fill="white"/>
<path d="M81.1433 1.85216V20.0012C81.1433 20.7471 80.5316 21.12 79.92 21.12C79.3084 21.12 78.6967 20.7471 78.6967 20.0012V19.0067C77.9628 20.4984 76.2502 21.2443 74.293 21.2443C70.6232 21.2443 68.666 18.8824 68.666 14.283V13.4129C68.666 8.81344 70.9902 6.45157 74.5377 6.45157C76.7395 6.45157 78.0851 7.32173 78.5744 8.3162V2.10077C78.5744 1.35492 79.186 0.982 79.92 0.982C80.5316 0.733383 81.1433 0.982001 81.1433 1.85216ZM71.2349 13.4129V14.1587C71.2349 17.3907 72.3358 18.8824 74.7823 18.8824C76.9842 18.8824 78.6967 17.2664 78.6967 14.9046V11.7968C78.6967 10.1808 77.3512 8.68913 74.9046 8.68913C72.4581 8.56482 71.2349 10.1808 71.2349 13.4129Z" fill="white"/>
<path d="M96.9231 8.06426L90.0728 25.8404C89.8282 26.5862 89.0942 26.7105 88.4826 26.4619C87.7487 26.089 87.3817 25.5918 87.7487 24.9702L89.3389 20.9923L84.3235 8.18857C84.0789 7.44272 84.4459 6.82117 85.1798 6.57256C85.7914 6.32394 86.6477 6.32394 86.8924 7.1941L90.6845 17.7603L94.4766 7.1941C94.7212 6.44825 95.5775 6.32394 96.1891 6.44825C96.8008 6.69686 97.1678 7.44272 96.9231 8.06426Z" fill="white"/>
<path d="M20.9477 4.62552L20.8751 3.92188H20.1851C13.3581 3.92188 11.5061 9.99548 11.4698 13.773V16.3283C11.143 16.3654 10.8162 16.3654 10.4893 16.3654C10.1625 16.3654 9.8357 16.3654 9.50887 16.3283V13.773C9.50887 9.99548 7.65687 3.92188 0.829901 3.92188H0.13994L0.0673131 4.62552C0.0309994 4.9218 -0.622647 10.6621 3.04504 14.8099C4.35233 16.2913 6.02276 17.2171 8.02001 17.6616V20.5873C8.02001 21.9946 9.14573 23.1056 10.5257 23.1426C11.9056 23.1426 13.0313 21.9946 13.0313 20.5873V17.6616C15.0286 17.2542 16.699 16.2913 18.0063 14.8099C21.6376 10.6621 20.9477 4.9218 20.9477 4.62552ZM8.02001 16.0691C6.45852 15.6987 5.18754 14.921 4.17076 13.81C1.59249 10.8843 1.48355 7.29199 1.51986 5.51435C7.83844 6.10689 7.9837 13.4026 8.02001 13.773V16.0691ZM11.4698 20.5502C11.4698 21.1057 11.034 21.5502 10.4893 21.5502C9.94464 21.5502 9.50887 21.1057 9.50887 20.5502V17.8467C9.79938 17.8838 10.1262 17.8838 10.4167 17.8838H10.453H10.4893C10.8162 17.8838 11.1067 17.8838 11.3972 17.8467V20.5502H11.4698ZM16.8079 13.773C15.7911 14.921 14.5202 15.6617 12.9587 16.0321V13.7359C12.9587 13.3656 13.1039 6.06986 19.4225 5.47731C19.5315 7.29199 19.3862 10.8843 16.8079 13.773Z" fill="white"/>
</svg>
