<svg width="21" height="22" viewBox="0 0 21 22" fill="none" xmlns="http://www.w3.org/2000/svg">
<path d="M6.29102 21.0754C5.7181 21.0754 5.22765 20.869 4.81966 20.4563C4.41168 20.0436 4.20768 19.5474 4.20768 18.9678C4.20768 18.3883 4.41168 17.8921 4.81966 17.4794C5.22765 17.0667 5.7181 16.8603 6.29102 16.8603C6.86393 16.8603 7.35438 17.0667 7.76237 17.4794C8.17036 17.8921 8.37435 18.3883 8.37435 18.9678C8.37435 19.5474 8.17036 20.0436 7.76237 20.4563C7.35438 20.869 6.86393 21.0754 6.29102 21.0754ZM16.7077 21.0754C16.1348 21.0754 15.6443 20.869 15.2363 20.4563C14.8283 20.0436 14.6243 19.5474 14.6243 18.9678C14.6243 18.3883 14.8283 17.8921 15.2363 17.4794C15.6443 17.0667 16.1348 16.8603 16.7077 16.8603C17.2806 16.8603 17.771 17.0667 18.179 17.4794C18.587 17.8921 18.791 18.3883 18.791 18.9678C18.791 19.5474 18.587 20.0436 18.179 20.4563C17.771 20.869 17.2806 21.0754 16.7077 21.0754ZM5.4056 4.21508L7.9056 9.48392H15.1973L18.0618 4.21508H5.4056ZM4.41602 2.10754H19.7806C20.1799 2.10754 20.4837 2.28756 20.6921 2.64759C20.9004 3.00763 20.9091 3.37206 20.7181 3.74088L17.0202 10.485C16.8292 10.8363 16.5731 11.1085 16.252 11.3017C15.9308 11.4949 15.5792 11.5915 15.1973 11.5915H7.43685L6.29102 13.699H18.791V15.8065H6.29102C5.50977 15.8065 4.91949 15.4597 4.52018 14.7659C4.12088 14.0722 4.10352 13.3829 4.4681 12.6979L5.87435 10.1162L2.12435 2.10754H0.0410156V0H3.42643L4.41602 2.10754Z" fill="white"/>
</svg>
