<svg width="21" height="21" viewBox="0 0 21 21" fill="none" xmlns="http://www.w3.org/2000/svg">
<path d="M6.29199 20.9154C5.71908 20.9154 5.22862 20.7114 4.82064 20.3034C4.41265 19.8954 4.20866 19.4049 4.20866 18.832C4.20866 18.2591 4.41265 17.7687 4.82064 17.3607C5.22862 16.9527 5.71908 16.7487 6.29199 16.7487C6.86491 16.7487 7.35536 16.9527 7.76335 17.3607C8.17133 17.7687 8.37533 18.2591 8.37533 18.832C8.37533 19.4049 8.17133 19.8954 7.76335 20.3034C7.35536 20.7114 6.86491 20.9154 6.29199 20.9154ZM16.7087 20.9154C16.1357 20.9154 15.6453 20.7114 15.2373 20.3034C14.8293 19.8954 14.6253 19.4049 14.6253 18.832C14.6253 18.2591 14.8293 17.7687 15.2373 17.3607C15.6453 16.9527 16.1357 16.7487 16.7087 16.7487C17.2816 16.7487 17.772 16.9527 18.18 17.3607C18.588 17.7687 18.792 18.2591 18.792 18.832C18.792 19.4049 18.588 19.8954 18.18 20.3034C17.772 20.7114 17.2816 20.9154 16.7087 20.9154ZM5.40658 4.2487L7.90658 9.45703H15.1982L18.0628 4.2487H5.40658ZM4.41699 2.16536H19.7816C20.1809 2.16536 20.4847 2.34332 20.693 2.69922C20.9014 3.05512 20.91 3.41536 20.7191 3.77995L17.0212 10.4466C16.8302 10.7938 16.5741 11.0629 16.2529 11.2539C15.9317 11.4449 15.5802 11.5404 15.1982 11.5404H7.43783L6.29199 13.6237H18.792V15.707H6.29199C5.51074 15.707 4.92046 15.3642 4.52116 14.6784C4.12185 13.9926 4.10449 13.3112 4.46908 12.6341L5.87533 10.082L2.12533 2.16536H0.0419922V0.0820312H3.42741L4.41699 2.16536Z" fill="#5D786B"/>
</svg>
