<svg width="21" height="21" viewBox="0 0 21 21" fill="none" xmlns="http://www.w3.org/2000/svg">
<path d="M10.4993 10.5393C9.07852 10.5393 7.8622 10.0275 6.85039 9.00398C5.83858 7.98042 5.33268 6.74997 5.33268 5.31263C5.33268 3.87529 5.83858 2.64484 6.85039 1.62128C7.8622 0.597718 9.07852 0.0859375 10.4993 0.0859375C11.9202 0.0859375 13.1365 0.597718 14.1483 1.62128C15.1601 2.64484 15.666 3.87529 15.666 5.31263C15.666 6.74997 15.1601 7.98042 14.1483 9.00398C13.1365 10.0275 11.9202 10.5393 10.4993 10.5393ZM0.166016 20.9927V17.334C0.166016 16.5936 0.354384 15.913 0.73112 15.2924C1.10786 14.6717 1.60838 14.198 2.23268 13.8713C3.5674 13.1962 4.92365 12.6899 6.30143 12.3523C7.67921 12.0148 9.07852 11.846 10.4993 11.846C11.9202 11.846 13.3195 12.0148 14.6973 12.3523C16.075 12.6899 17.4313 13.1962 18.766 13.8713C19.3903 14.198 19.8908 14.6717 20.2676 15.2924C20.6443 15.913 20.8327 16.5936 20.8327 17.334V20.9927H0.166016ZM2.74935 18.3794H18.2493V17.334C18.2493 17.0945 18.1901 16.8767 18.0717 16.6807C17.9533 16.4847 17.7973 16.3322 17.6035 16.2234C16.441 15.6354 15.2678 15.1944 14.0837 14.9003C12.8997 14.6063 11.7049 14.4593 10.4993 14.4593C9.29379 14.4593 8.099 14.6063 6.91497 14.9003C5.73095 15.1944 4.55768 15.6354 3.39518 16.2234C3.20143 16.3322 3.04536 16.4847 2.92695 16.6807C2.80855 16.8767 2.74935 17.0945 2.74935 17.334V18.3794ZM10.4993 7.92598C11.2098 7.92598 11.8179 7.67009 12.3238 7.15831C12.8297 6.64653 13.0827 6.0313 13.0827 5.31263C13.0827 4.59396 12.8297 3.97874 12.3238 3.46696C11.8179 2.95517 11.2098 2.69928 10.4993 2.69928C9.78893 2.69928 9.18077 2.95517 8.67487 3.46696C8.16897 3.97874 7.91602 4.59396 7.91602 5.31263C7.91602 6.0313 8.16897 6.64653 8.67487 7.15831C9.18077 7.67009 9.78893 7.92598 10.4993 7.92598Z" fill="white"/>
</svg>
