<svg width="24" height="23" viewBox="0 0 24 23" fill="none" xmlns="http://www.w3.org/2000/svg">
<g clip-path="url(#clip0_133_341)">
<path d="M19.08 23H4.98C2.22 23 0 20.8725 0 18.285V4.7725C0 2.1275 2.22 0 4.98 0H19.08C21.78 0 24 2.1275 24 4.7725V18.285C24 20.8725 21.78 23 19.08 23ZM4.98 2.3C3.54 2.3 2.4 3.3925 2.4 4.7725V18.285C2.4 19.6075 3.54 20.7 4.98 20.7H19.08C20.46 20.7 21.66 19.6075 21.66 18.2275V4.7725C21.6 3.3925 20.46 2.3 19.08 2.3H4.98Z" fill="white"/>
<path d="M12 17.25C8.7 17.25 6 14.6625 6 11.5C6 8.3375 8.7 5.75 12 5.75C15.3 5.75 18 8.3375 18 11.5C18 14.6625 15.3 17.25 12 17.25ZM12 8.05C10.02 8.05 8.4 9.6025 8.4 11.5C8.4 13.3975 10.02 14.95 12 14.95C13.98 14.95 15.6 13.3975 15.6 11.5C15.6 9.6025 13.98 8.05 12 8.05Z" fill="white"/>
<path d="M17.9998 6.90156C18.6625 6.90156 19.1998 6.38669 19.1998 5.75156C19.1998 5.11644 18.6625 4.60156 17.9998 4.60156C17.3371 4.60156 16.7998 5.11644 16.7998 5.75156C16.7998 6.38669 17.3371 6.90156 17.9998 6.90156Z" fill="white"/>
</g>
<defs>
<clipPath id="clip0_133_341">
<rect width="24" height="23" fill="white"/>
</clipPath>
</defs>
</svg>
