<svg width="110" height="32" viewBox="0 0 110 32" fill="none" xmlns="http://www.w3.org/2000/svg">
<g clip-path="url(#clip0_133_316)">
<path d="M26.1612 8.13162L30.9964 21.5961L35.7452 8.13162C36.0906 7.08244 37.0404 6.99501 37.8174 7.34473C38.5945 7.60703 39.1126 8.30648 38.7672 9.26823L33.2413 23.5196C32.7233 24.8311 31.8598 25.2682 30.8237 25.2682C29.7876 25.2682 29.0105 24.8311 28.4925 23.607L22.9666 9.26823C22.6212 8.30648 23.1393 7.60703 24.0027 7.34473C24.8661 6.99501 25.8159 7.08244 26.1612 8.13162Z" fill="#F4F4ED"/>
<path d="M57.1582 14.95C57.1582 16.786 56.5538 17.3981 54.7406 17.3981H44.7249V17.4855C44.7249 20.7205 46.4518 22.5565 49.6464 22.5565C51.6323 22.5565 53.1001 22.2068 54.4816 21.4199C55.2587 21.0702 55.9494 21.2451 56.2948 22.0319C56.6402 22.8188 56.4675 23.5183 55.7767 23.9554C54.1362 24.8298 52.2367 25.3543 49.5601 25.3543C44.5523 25.3543 41.5303 22.4691 41.5303 16.6986V15.562C41.5303 9.87893 44.6386 6.90625 49.5601 6.90625C54.0499 6.90625 57.1582 9.87893 57.1582 14.95ZM44.7249 14.6002V14.7751H54.0499V14.5128C54.0499 11.6276 52.5821 9.70406 49.4738 9.70406C46.3654 9.70406 44.7249 11.6276 44.7249 14.6002Z" fill="#F4F4ED"/>
<path d="M71.5768 7.25598C72.2676 7.6057 72.4402 8.21773 72.2676 9.00461C72.0949 9.96636 71.4041 10.4909 70.6271 10.3161C70.109 10.2287 69.5909 10.0538 68.9866 10.0538C66.4826 10.0538 64.9285 12.1522 64.9285 14.95V23.868C64.9285 24.8297 64.1514 25.2669 63.288 25.2669C62.4245 25.2669 61.6475 24.8297 61.6475 23.868V8.48002C61.6475 7.51827 62.4245 7.16854 63.2016 7.16854C64.065 7.16854 64.8421 7.6057 64.8421 8.48002V10.3161H64.9285C65.6192 8.48002 67.346 6.90625 69.7636 6.90625C70.5407 6.90625 71.1451 7.08111 71.5768 7.25598Z" fill="#F4F4ED"/>
<path d="M90.3135 1.39891V23.9563C90.3135 24.918 89.5364 25.3552 88.7593 25.3552C87.9823 25.3552 87.2052 24.918 87.2052 23.9563V22.6448H87.1188C86.1691 24.4809 84.0968 25.3552 81.6793 25.3552C77.1031 25.3552 74.6855 22.3825 74.6855 16.6995V15.5628C74.6855 9.79235 77.5348 6.9071 82.0246 6.9071C84.7012 6.9071 86.3417 8.04372 87.1188 9.18033V1.39891C87.1188 0.437159 87.8959 0 88.7593 0C89.5364 0 90.3135 0.437159 90.3135 1.39891ZM77.9666 15.7377V16.612C77.9666 20.6339 79.348 22.4699 82.2837 22.4699C84.9603 22.4699 87.1188 20.459 87.1188 17.5738V13.6393C87.1188 11.7158 85.4783 9.70492 82.4563 9.70492C79.5207 9.79235 77.9666 11.7158 77.9666 15.7377Z" fill="#F4F4ED"/>
<path d="M109.913 9.17949L101.365 31.1248C101.02 31.9992 100.157 32.174 99.2932 31.8243C98.4298 31.4746 98.0844 30.7751 98.4298 29.9882L100.416 25.0046L94.199 9.17949C93.8536 8.21774 94.3717 7.51829 95.2351 7.256C96.0122 6.9937 97.0483 6.9937 97.3073 8.04288L102.056 21.1576L106.719 8.04288C107.064 7.08113 108.1 6.90627 108.791 7.16856C109.741 7.51829 110.259 8.30518 109.913 9.17949Z" fill="#F4F4ED"/>
<path d="M20.2907 7.51977L20.2044 6.82031H19.5137C12.8653 6.82031 11.1385 12.6782 11.0521 16.2629V18.711C10.7067 18.711 10.4477 18.711 10.1024 18.711C9.75698 18.711 9.49796 18.711 9.15259 18.711V16.2629C9.15259 12.6782 7.3394 6.82031 0.691048 6.82031H0.172994L0.0866522 7.51977C0.0866522 7.78206 -0.604086 13.2903 2.93595 17.3121C4.23108 18.7985 5.78524 19.6728 7.77111 20.1099V22.9077C7.77111 24.2192 8.89356 25.3558 10.1887 25.3558C11.4838 25.3558 12.6063 24.2192 12.6063 22.9077V20.1099C14.5921 19.6728 16.1463 18.7985 17.4414 17.3995C20.9815 13.3777 20.2907 7.78206 20.2907 7.51977ZM7.77111 18.5362C6.30329 18.1864 5.00816 17.3995 4.05839 16.3504C1.55447 13.5526 1.46813 10.1427 1.46813 8.39408C7.59843 9.00611 7.77111 16.0006 7.77111 16.3504V18.5362ZM11.1385 22.9077C11.1385 23.4323 10.7067 23.8695 10.1887 23.8695C9.67064 23.8695 9.23893 23.4323 9.23893 22.9077V20.2848C9.49795 20.2848 9.84332 20.2848 10.1024 20.2848C10.1024 20.2848 10.1024 20.2848 10.1887 20.2848C10.1887 20.2848 10.1887 20.2848 10.275 20.2848C10.6204 20.2848 10.8794 20.2848 11.1385 20.2848V22.9077ZM16.319 16.3504C15.3692 17.3995 14.0741 18.1864 12.6063 18.5362V16.3504C12.6063 16.0006 12.779 9.00611 18.9093 8.39408C18.9093 10.1427 18.8229 13.5526 16.319 16.3504Z" fill="#F4F4ED"/>
</g>
<defs>
<clipPath id="clip0_133_316">
<rect width="110" height="32" fill="white"/>
</clipPath>
</defs>
</svg>
