<svg width="16" height="16" viewBox="0 0 16 16" fill="none" xmlns="http://www.w3.org/2000/svg">
<mask id="mask0_167_24" style="mask-type:alpha" maskUnits="userSpaceOnUse" x="0" y="0" width="16" height="16">
<rect width="16" height="16" fill="#D9D9D9"/>
</mask>
<g mask="url(#mask0_167_24)">
<path d="M15.9601 1.52996L15.9048 1H15.3791C10.1776 1 8.76657 5.57436 8.7389 8.4194V10.344C8.48989 10.3719 8.24089 10.3719 7.99188 10.3719C7.74287 10.3719 7.49386 10.3719 7.24485 10.344V8.4194C7.24485 5.57436 5.83381 1 0.632305 1H0.106621L0.0512862 1.52996C0.0236186 1.7531 -0.474398 6.07643 2.32003 9.20039C3.31606 10.3161 4.58877 11.0134 6.11048 11.3481V13.5516C6.11048 14.6115 6.96818 15.4483 8.01955 15.4762C9.07091 15.4762 9.92861 14.6115 9.92861 13.5516V11.3481C11.4503 11.0413 12.723 10.3161 13.7191 9.20039C16.4858 6.07643 15.9601 1.7531 15.9601 1.52996ZM6.11048 10.1487C4.92078 9.8698 3.95241 9.28406 3.17772 8.44729C1.21332 6.24378 1.13032 3.53821 1.15799 2.19938C5.97215 2.64566 6.08282 8.14047 6.11048 8.4194V10.1487ZM8.7389 13.5237C8.7389 13.9421 8.40689 14.2768 7.99188 14.2768C7.57687 14.2768 7.24485 13.9421 7.24485 13.5237V11.4876C7.4662 11.5155 7.7152 11.5155 7.93654 11.5155H7.96421H7.99188C8.24089 11.5155 8.46223 11.5155 8.68357 11.4876V13.5237H8.7389ZM12.806 8.4194C12.0313 9.28406 11.063 9.84191 9.87327 10.1208V8.3915C9.87327 8.11258 9.98395 2.61776 14.7981 2.17148C14.8811 3.53821 14.7704 6.24378 12.806 8.4194Z" fill="#374F43"/>
</g>
</svg>
